<svg width="600" height="400" viewBox="0 0 600 400" fill="none" xmlns="http://www.w3.org/2000/svg">
  <!-- 배경 -->
  <rect width="600" height="400" rx="20" fill="#F9F7FF" />
  
  <!-- 선물 상자 1 -->
  <rect x="150" y="180" width="100" height="100" rx="8" fill="#6366F1" />
  <rect x="150" y="160" width="100" height="30" rx="8" fill="#4F46E5" />
  <rect x="190" y="140" width="20" height="40" rx="5" fill="#4F46E5" />
  
  <!-- 선물 상자 2 -->
  <rect x="350" y="200" width="120" height="120" rx="10" fill="#EC4899" />
  <rect x="350" y="180" width="120" height="30" rx="8" fill="#DB2777" />
  <rect x="400" y="150" width="20" height="50" rx="5" fill="#DB2777" />
  
  <!-- 사람 1 -->
  <circle cx="100" cy="200" r="40" fill="#C7D2FE" />
  <circle cx="100" cy="200" r="35" fill="#E0E7FF" />
  <path d="M80 190 L120 190" stroke="#4F46E5" stroke-width="3" />
  <circle cx="90" cy="180" r="5" fill="#4F46E5" />
  <circle cx="110" cy="180" r="5" fill="#4F46E5" />
  <path d="M90 210 Q100 220 110 210" stroke="#4F46E5" stroke-width="3" fill="none" />
  
  <!-- 사람 2 -->
  <circle cx="500" cy="220" r="40" fill="#FBCFE8" />
  <circle cx="500" cy="220" r="35" fill="#FCE7F3" />
  <path d="M480 210 L520 210" stroke="#DB2777" stroke-width="3" />
  <circle cx="490" cy="200" r="5" fill="#DB2777" />
  <circle cx="510" cy="200" r="5" fill="#DB2777" />
  <path d="M490 230 Q500 240 510 230" stroke="#DB2777" stroke-width="3" fill="none" />
  
  <!-- 화살표 -->
  <path d="M150 220 Q175 180 200 220" stroke="#4F46E5" stroke-width="3" fill="none" />
  <path d="M400 230 Q450 180 500 230" stroke="#DB2777" stroke-width="3" fill="none" />
  
  <!-- 텍스트 '골라골라' -->
  <path d="M250 100 Q300 50 350 100" stroke="#4F46E5" stroke-width="8" fill="none" />
  <path d="M250 100 Q300 150 350 100" stroke="#DB2777" stroke-width="8" fill="none" />
</svg> 